<?xml version="1.0" encoding="UTF-8"?>
<!DOCTYPE svg PUBLIC "-//W3C//DTD SVG 1.1//EN" "http://www.w3.org/Graphics/SVG/1.1/DTD/svg11.dtd">
<svg xmlns="http://www.w3.org/2000/svg" version="1.1" width="80px" height="80px" style="shape-rendering:geometricPrecision; text-rendering:geometricPrecision; image-rendering:optimizeQuality; fill-rule:evenodd; clip-rule:evenodd" xmlns:xlink="http://www.w3.org/1999/xlink">
<g><path style="opacity:1" fill="#fdfdfd" d="M -0.5,-0.5 C 26.1667,-0.5 52.8333,-0.5 79.5,-0.5C 79.5,26.1667 79.5,52.8333 79.5,79.5C 52.8333,79.5 26.1667,79.5 -0.5,79.5C -0.5,52.8333 -0.5,26.1667 -0.5,-0.5 Z"/></g>
<g><path style="opacity:1" fill="#ea4637" d="M 19.5,32.5 C 15.5,29.5 11.5,26.5 7.5,23.5C 21.3829,2.03053 39.3829,-2.13613 61.5,11C 62.1667,11.6667 62.8333,12.3333 63.5,13C 60.5,16 57.5,19 54.5,22C 53.5,22.6667 52.5,22.6667 51.5,22C 42.6422,15.8533 33.9755,16.1866 25.5,23C 22.8533,25.8012 20.8533,28.9679 19.5,32.5 Z"/></g>
<g><path style="opacity:1" fill="#fabc11" d="M 7.5,23.5 C 11.5,26.5 15.5,29.5 19.5,32.5C 18.291,37.1208 18.291,41.7875 19.5,46.5C 15.5,49.5 11.5,52.5 7.5,55.5C 2.27196,44.7965 2.27196,34.1299 7.5,23.5 Z"/></g>
<g><path style="opacity:1" fill="#4887f4" d="M 62.5,66.5 C 59.4797,63.4838 56.1464,60.8171 52.5,58.5C 55.5441,55.0786 57.5441,51.0786 58.5,46.5C 52.1667,46.5 45.8333,46.5 39.5,46.5C 39.5,41.8333 39.5,37.1667 39.5,32.5C 50.8333,32.5 62.1667,32.5 73.5,32.5C 74.757,42.7885 72.9236,52.4551 68,61.5C 66.5736,63.7658 64.7402,65.4324 62.5,66.5 Z"/></g>
<g><path style="opacity:1" fill="#38a955" d="M 19.5,46.5 C 26.6034,60.76 37.6034,64.76 52.5,58.5C 56.1464,60.8171 59.4797,63.4838 62.5,66.5C 58.4636,70.8565 53.4636,73.6898 47.5,75C 29.7711,77.3014 16.4378,70.8014 7.5,55.5C 11.5,52.5 15.5,49.5 19.5,46.5 Z"/></g>
</svg>
